<svg xmlns="http://www.w3.org/2000/svg" viewBox="0 0 321.1 321.8">
	<path fill-rule="evenodd" clip-rule="evenodd" fill="#0C4E82" d="M87.4,290.1h1.3c0.1,6.4,3.1,14.4,3.2,20.7h-7.8
		C84.3,304.4,87.3,296.4,87.4,290.1L87.4,290.1z M73.2,310.8H10.4c0-20.4-3.2-37.4,13.9-47c3-1.7,10.5-3.7,14.4-5
		c4.4-1.5,10.8-3.2,14.5-4.9c2.8,5.3,5.8,15,8.6,21.2c3.4,7.5,7.3,4.3,10.8,3.4c1.9,7.2,5.7,2,3.6,14.6
		C76.1,293,73.2,310.8,73.2,310.8z M81.6,273.2c2.9-0.7,4.4-2.6,7.1-2.6c1,0,4.1,2.1,5.8,2.6c-1.2,1.8-3.3,4.3-3.9,6.5h-5.2
		C84.9,277.5,82.8,275,81.6,273.2L81.6,273.2z M65.4,249.9c1.9,0,12.7,11.6,13.6,12.9c-3.5,0.8-6.1,3.6-9.1,3.9
		C68,258.3,60.9,249.9,65.4,249.9z M106.2,266.7c-3.5-0.8-5.5-3.1-9.1-3.9c1.8-2.7,8.1-8.3,11.2-11.5c1.8-1.9,1.7-2.7,5-2.7
		L106.2,266.7L106.2,266.7z M72.5,230.5c11.7,2.7,6.2,2.6,19.4,2.6c5.1,0,7.6-1.6,11.7-1.9c0,11.7,1.2,8.8-5,15.1
		c-2.8,2.8-7.6,8.3-10.5,10.2c-2.9-1.9-7.7-7.4-10.5-10.2C71.1,239.8,72.5,242.5,72.5,230.5L72.5,230.5z M145,284.9v25.9h-42.1
		c-0.4-5-4.9-22.4-3.3-25.9c1-2.2,3.2-3.8,3.9-6.5c5.1,1.2,7.8,3.8,11.2-4.3l10.2-25.4c8.2,0,16.4,0,24.6,0c10,0,7.2,0.9,16.7-8.6
		l25.4-25.1l13.1,12.8c-1.7,1.2-2.5,2.1-3.9,3.6l-19.1,17.2c-7.8,6.8-23.3,22.3-30.4,27.9C149.3,278,145,281.6,145,284.9L145,284.9z
		 M199.3,207.3c3.9-5.8,17-7,17,6.3c0,3-2.1,5.3-3.9,6.5L199.3,207.3L199.3,207.3z M132.7,202c0.3-4.1,1.9-6.6,1.9-11.7v-14.2
		c12.2,0,10.4,1.8,10.4,20.1C145,202.6,139.1,202,132.7,202L132.7,202z M51.8,183.9v-12.9h28.5c7.2,0,14.2-4.1,18.6-8.6
		c1.4-1.4,3.6-4.3,4.7-5c5.1,3.7,3.4,7.7,18.3,12.8c3.6,1.2,2.4,0.8,2.4,15.1c0,3.6-0.3,6.1-0.9,9.4c-0.4,2.4-1.3,7.4-3.6,7.4H88.1
		v10.4h25.3c-7.1,10.6-33.7,16.5-51-0.8C56.1,205.4,51.8,196,51.8,183.9L51.8,183.9z M31.1,183.9c0-2,1.7-5,3.1-6
		c2-1.5,4-1.8,7.3-1.8v15.5C35.7,191.6,31.1,189.1,31.1,183.9z M47.9,160.6c-0.5-6.1-15.7-24.7,2.7-43.2c5.4-5.4,12.5-8.6,23.2-8.6
		h28.5c14.2,0,24,6.1,29.4,17.3c7.6,15.8-1.4,25.1-3.5,33.9c-18.3,0-15.8-20.1-24.6-20.1c-7.6,0-5.5,14.3-18.9,19.3
		C76.5,162.1,58.6,160.6,47.9,160.6L47.9,160.6z M31.1,136c0,11,2.7,20.3,7.8,29.8c-10.6,0-18.1,8.9-18.1,16.2
		c0,7.6,0.5,10.6,6.9,16.4c4.3,3.8,8.5,3.7,16.4,3.7c4.8,10,6.8,15.7,18.1,23.3v14.2l-20,6.6c-6.4,2.1-13.4,4.2-19.8,6.7
		C11.6,257.2,0,269.6,0,284.2v33c0,2.8,4,4.5,7.1,4.5h141.1c8.7,0,7.1-5.4,7.1-13.6c0-7.1,0-14.2,0-21.4
		c3.2-1.7,46.5-41.7,52.6-47.8c6.1-6.1,19.3-14.1,19.3-26.7c0-10.9-9.2-20.1-20.1-20.1c-11.2,0-19.8,11.7-29.3,21.2
		c-1.8,1.8-23.6,24.8-25.7,24.8H114c0-22.4,0.1-5.7,13.6-25.9c6.5,0,14.7,0.8,19.2-1.5c11.2-5.7,8.6-16.4,8.6-30.9
		c0-4.1-3-8.9-5.4-10.8c-3.9-2.9-6.2-3.5-12.7-3.5c1.7-3.2,3.3-7.8,4.7-11.5c4.3-10.7,4.4-22.9-0.8-33.2c-1-2-2-4.1-3.2-5.8
		c-0.8-1.1-1.2-1.4-2-2.5c-6.5-8.2-17.6-14.3-28.4-14.3H68.6c-13.6,0-27.9,9.9-33.8,22.6C33,125.1,31.1,129.9,31.1,136L31.1,136z"/>
	<path fill-rule="evenodd" clip-rule="evenodd" fill="#0C4E82" d="M165.7,154.7V47.3c0-3.2,2.6-5.8,5.8-5.8h133.4
		c3.2,0,5.8,2.6,5.8,5.8v107.5c0,5.7-4.7,5.9-10.4,5.8c-11.4-0.1-77-0.9-80.3,0.6c-1.4,0.7-3.2,2.3-4.4,3.3c-1.7,1.3-3,2.4-4.7,3.7
		l-9,7.2c0-17.1,3.7-15.1-27.9-14.9C169.2,160.6,165.7,159.4,165.7,154.7L165.7,154.7z M155.4,45.3v111.4c0,7.1,7.1,14.2,14.2,14.2
		h22c0,11-2.1,20.7,5.2,20.7c2.6,0,4.7-2,6.3-3.4l16.5-13.2c6.6-5.3,4.9-4.1,16-4.1h59.6c7.5,0,13.2,0.9,18.1-1.9
		c3.7-2.1,7.8-6.6,7.8-12.3V45.3c0-7.1-7.1-14.2-14.2-14.2H169.6C162.5,31.1,155.4,38.2,155.4,45.3z"/>
	<path fill-rule="evenodd" clip-rule="evenodd" fill="#00C4E1" d="M274.5,98.4h10.4v41.4h-10.4V98.4z M233.1,108.8h10.4v31.1h-10.4
		V108.8z M191.6,119.1H202v20.7h-10.4V119.1z M264.2,93.2v46.6h-10.4v-36.3c0-3.1-2-5.2-5.2-5.2h-20.7c-3.1,0-5.2,2-5.2,5.2v36.3
		h-10.4v-25.9c0-3.1-2-5.2-5.2-5.2h-20.7c-3.1,0-5.2,2-5.2,5.2v25.9h-5.2v10.4h124.3v-10.4h-5.2V93.2c0-3.1-2-5.2-5.2-5.2h-20.7
		C266.2,88.1,264.2,90.1,264.2,93.2L264.2,93.2z"/>
	<path fill-rule="evenodd" clip-rule="evenodd" fill="#00C4E1" d="M10.4,72.5c0-6.5,10.4-6.5,10.4,0S10.4,79.1,10.4,72.5z
		 M88.1,67.3c0-6.5,10.4-6.5,10.4,0S88.1,73.9,88.1,67.3z M51.8,31.1c0-6.5,10.4-6.5,10.4,0S51.8,37.6,51.8,31.1z M139.8,15.5
		c0-6.5,10.4-6.5,10.4,0S139.8,22.1,139.8,15.5z M129.5,14.2c0,6.6,0.2,3.6,1.3,8.4l-30.6,30.3c-8.2-1.4-5.4-1.9-14.1,0.2L71.4,38
		c0.8-4.3,1.1-1.4,1.1-8.3c0-7.9-6.8-14.2-16.8-14.2c-7.9,0-14.2,6.8-14.2,16.8c0,2.8,0.8,3.5,1.3,5.8L22.5,58.1
		c-4.3-0.7-1.4-1.1-8.3-1.1C6.3,57,0,63.8,0,73.8c0,7.9,6.8,14.2,16.8,14.2c7.9,0,14.2-6.8,14.2-16.8c0-2.8-0.8-3.5-1.3-5.8L50,45.5
		c8.2,1.4,5.4,1.9,14.1-0.2l14.7,15c-0.8,4.3-1.1,1.4-1.1,8.3c0,7.9,6.8,14.2,16.8,14.2c7.9,0,14.2-6.8,14.2-16.8
		c0-2.8-0.8-3.5-1.3-5.8l30.6-30.3c4.2,0.7,1.4,1.1,8.3,1.1c7.9,0,14.2-6.8,14.2-16.8c0-7.9-6.8-14.2-16.8-14.2
		C136.6,0,129.5,7.1,129.5,14.2L129.5,14.2z"/>
	<path fill-rule="evenodd" clip-rule="evenodd" fill="#00C4E1" d="M178.7,88.7l4.5,9.1c3-0.2,21.3-10,25.5-12.1c2-1,4.2-2.5,6.3-2.7
		l29.1-0.1c15.4,0,9.9,0.9,26.8-10.7l22.4-15.8c-1.7-3.2-5.2-6.8-5.8-9.1l-33,23.3c-4.2,3.1-7.6,1.9-16.9,1.9c-6.3,0-12.5,0-18.8,0
		c-11,0-10.5,1.4-21.1,6.7c-2.3,1.2-4.6,2-6.7,3.1c-1.8,1-3.8,2.2-5.9,3.2C183,86.5,180.8,87.6,178.7,88.7L178.7,88.7z"/>
</svg>
