<svg xmlns="http://www.w3.org/2000/svg" viewBox="0 0 96.4 96.4">
    <path fill-rule="evenodd" clip-rule="evenodd" fill="#0C4E82" d="M46.3,86.6v6H3.8v-3.8h7.9c2.4,0,2.4-3.8,0-3.8H3.9
			c0-1.4,0.6-3.2,1.1-4.2c0.8-1.6,2.1-3.5,3.4-4.5c1.7-1.3,2.1-2,5.1-3c2.8-0.9,2-0.7,6.2,3.5c0.9,0.9,1.7,1.7,2.6,2.6
			c3.3,3.3,2.7,2.6,8.8-3.4c3.5-3.5,2.6-3.8,6.6-2.3C42.5,75.6,46.3,81,46.3,86.6L46.3,86.6z M21.2,72.9l7.6,0l-3.7,3.8L21.2,72.9
			L21.2,72.9z M16.8,59.7v-1.9h12.6c1.8,0,2.8-0.5,4-1.1c0,3.7,0.1,6.5-1.5,8.7c-3.4,4.6-9.7,4.5-12.8,0.9
			C17.6,64.6,16.8,62.8,16.8,59.7L16.8,59.7z M29.8,53.9h-13c0-2.4,0-4.9,1.8-6.6c1.3-1.2,2.9-1.7,5.3-1.7h9.4v4.1
			C33.3,51.9,31.8,53.9,29.8,53.9L29.8,53.9z M13,50.7v10.7c0,4.4,2.7,6.5,3,7.5c-1.8,0.9-3.7-0.5-10,4.3c-3,2.4-6,7.6-6,12.6v9
			c0,0.6,0.9,1.5,1.5,1.5h46.9c0.9,0,1.7-0.8,1.7-1.7c0-6.4,0.8-12.8-2.8-17.9c-2.5-3.6-5.6-5.9-9.9-7.2c-3.2-1-3.9,0-2.5-1.8
			c3.3-4.2,2.5-11.9,2.4-17.4c0-0.5,0.1-0.4,0.1-1.1c0-1.5,0.2-5.5-0.4-6.6c-0.2-0.3-0.9-0.9-1.3-0.9H22.3c-3.1,0-5.6,1.7-7.4,3.9
			C14,46.8,13,49,13,50.7L13,50.7z"/>
    <path fill-rule="evenodd" clip-rule="evenodd" fill="#0C4E82" d="M67.6,31.1l7.6,0l-3.7,3.8L67.6,31.1L67.6,31.1z M96.4,44.6v8.5
			c0,0.6-0.9,1.5-1.5,1.5H78.7c-1.4,0-2.5-1.8-1.4-3.1c0.2-0.2,0.7-0.6,1.1-0.6h14.3c0-6.2,0.5-10.3-3.4-15.1
			c-2.4-3-5.3-3.9-8.7-4.7c-0.6,0.9-5.2,5.3-6.5,6.6c-1.1,1.1-1.4,1.8-2.9,1.8c-1.1,0-3.9-3.2-4.7-4.1c-1.1-1.1-3.6-3.3-4.3-4.4
			c-3.8,0.9-5.5,1.3-8.5,4.5c-4.1,4.2-3.5,9.7-3.5,15.3h13.4c2.4,0,2.3,3.8,0,3.8H47.8c-0.3,0-1.5-0.5-1.5-1.7v-9.2
			c0-6.1,4.3-12.1,9.7-14.8c3.2-1.6,5.7-1.6,6.3-1.8c-0.2-0.6-0.3-0.5-0.7-1c-3.1-3.8-2.5-9.4-2.5-14.4c0-1.6,0.1-3.5,0.5-4.8
			C60.8,3.2,64.5,0,68.2,0h13.6c0.9,0,1.7,0.8,1.7,1.7v17.9c0,4-2,5.7-3.2,7.5c1.2,0.3,2.3,0.3,3.5,0.7c3.3,1,5.4,2.3,7.8,4.6
			C95.2,36.1,96.2,40.1,96.4,44.6z M71.4,27.1c-2.6,0-4.8-1.3-6-2.6c-2.4-2.8-2.3-4.8-2.3-8.5h12.4c1.7,0,3-0.6,4.1-1.1
			c0,4.1,0.2,6-1.5,8.7C77,25.4,74.4,27.1,71.4,27.1L71.4,27.1z M75.9,12H63.1c0-2.5-0.1-4.9,1.8-6.6c1.1-1,2.8-1.6,5-1.6h9.8
			C79.7,6.6,80.3,12.1,75.9,12L75.9,12z"/>
    <path fill-rule="evenodd" clip-rule="evenodd" fill="#00C4E1" d="M32.2,31.6H10.3c-4.3,0-6.6-2.3-6.6-6.6V10.4
			c0-4.3,2.3-6.6,6.6-6.6H32c4.4,0,6.6,2.2,6.6,6.2v8.5c0.1,3.2,3.5,4.2,5.7,7.3c-5.9,0-4.7-0.4-6.2,2.7
			C37.1,30.6,35.3,31.7,32.2,31.6L32.2,31.6z M0,8.7v18.1c0,2.3,1.5,4.7,2.7,5.9c1.2,1.2,3.6,2.7,5.9,2.7h24.9
			c4.2,0,6.6-2.6,8.3-5.8c2.3,0,4.7,0,7,0c1.2,0,1.7-0.4,2.1-1.3c0.4-1.1-0.2-1.6-0.9-2.3c-1.2-1.2-2.3-2.3-3.5-3.5l-3.6-3.6
			c-0.6-0.7-0.3-1.5-0.3-3.1c0-3.2,0.3-7.4-0.7-9.8c-1.2-3.2-4.8-6-8.2-6H8.7C4.5,0.1,0,4.5,0,8.7L0,8.7z"/>
    <path fill-rule="evenodd" clip-rule="evenodd" fill="#00C4E1" d="M52.2,70.6c5.9,0,4.7,0.4,6.2-2.7c1-2.1,2.8-3.2,5.9-3.2h21.8
			c4.3,0,6.6,2.3,6.6,6.6v14.7c0,4.3-2.3,6.6-6.6,6.6H64.4c-4.4,0-6.6-2.2-6.6-6.2v-8.5C57.8,74.7,54.3,73.8,52.2,70.6L52.2,70.6z
			 M54.6,66.9c-2.3,0-4.7,0-7,0c-1.7,0-3.2,1.6-1.2,3.6l7.1,7.1c0.6,0.7,0.3,1.5,0.3,3.1c0,1.2,0,2.4,0,3.6c0,4.1,0.1,7.6,3.7,10.3
			c1.2,0.9,3.2,2,5.2,2h25.1c4.2,0,8.7-4.5,8.7-8.7V69.7c0-4.2-4.5-8.7-8.7-8.7H62.9c-2.2,0-3.8,0.9-5.2,1.8
			C56.1,64,55.5,65.2,54.6,66.9L54.6,66.9z"/>
    <path fill-rule="evenodd" clip-rule="evenodd" fill="#0C4E82" d="M16.8,12.2v1.1c0,1.5,3.3,2.4,3.8-0.2c0.3-1.3,0.3-1.8,1.3-2.5
			c2.6-1.8,5.7,1.9,3.4,4.1c-1,1-2.3,0.5-3.4,2.3c-2.3,3.7,2.5,6.5,3.3,3c0.3-1.1-0.3-0.6,0.6-1.1c1.8-1,3.5-2,4-5
			c0.9-6.3-6.7-10-11-5.7C17.9,9.1,16.7,10.6,16.8,12.2L16.8,12.2z"/>
    <path fill-rule="evenodd" clip-rule="evenodd" fill="#0C4E82" d="M76.1,78.5c-1.1-0.3-1.8-1.7-2.7-2.4c-0.9-0.6-3-0.7-3,2
			c0,0.3,3.5,5.1,5.6,5.1c1.3,0,8.1-6.8,8.1-8.1c0-1.4-1-2.1-1.9-2.1C80.7,73.1,78,77.3,76.1,78.5L76.1,78.5z"/>
    <path fill-rule="evenodd" clip-rule="evenodd" fill="#0C4E82" d="M69.5,52.5c0,2.2,2.1,2.5,3.1,1.6c1.1-0.9,0.9-3.3-1.4-3.3
			C70.3,50.8,69.5,51.6,69.5,52.5z"/>
    <path fill-rule="evenodd" clip-rule="evenodd" fill="#0C4E82"
          d="M23.2,28.8c2.8,0,2.6-3.8,0-3.8C20.8,25.1,20.8,28.8,23.2,28.8z"
    />
    <path fill-rule="evenodd" clip-rule="evenodd" fill="#0C4E82" d="M19,88.9h0.2c2.4,0,2.4-3.8,0-3.8H19
			C16.7,85.1,16.7,88.9,19,88.9z"/>
</svg>
