<svg xmlns="http://www.w3.org/2000/svg" viewBox="0 0 289.6 298.9" >
	<path fill-rule="evenodd" clip-rule="evenodd" fill="#0C4E82" d="M102.8,289.6H84.1v-94c4.7-0.1,28.1-4.7,32.7-4.7
		c0.1,4.3,5.9,8.6,10.4,13c3.4,3.4,9.7,10.9,13,10.9c3.8,0,6.7-5.2,9.3-7v81.7h-37.4v-65.4h-9.3L102.8,289.6L102.8,289.6z
		 M214.8,214.8v74.7h-56v-81.7c7.7,5.1,6.4,12,16.2,2.2l11.7-11.7c5.2-5.2,4.8-3.6,4.8-11.5H244c3.6,0,8.2-4.5,8.2-8.2v-38.5h18.7
		V195c0,15.5-13.6,15.2-22.8,15.2c-6.2,0-12.5,0-18.7,0C223,210.2,214.8,208.5,214.8,214.8L214.8,214.8z M168.1,203.2l-7.1-6.9
		c1.2-1.7,8.3-9.5,10.1-9.5h11.1c0,4.4-2,4.7-6.6,9.2C173.3,198.3,170.7,201.4,168.1,203.2L168.1,203.2z M126,189.3
		c3.6-0.2,11-2.8,13.4-1.2c1.1,0.8,7,7,7.7,8.1l-6.9,7.1L126,189.3L126,189.3z M144.8,179.2v-7l12.3,0.6c3.2,0,3.5-0.6,6.4-0.6v7
		c0,1.8-7.8,8.9-9.3,9.9C152.5,188.1,144.8,181,144.8,179.2L144.8,179.2z M121.4,127.9v-16.3c6-0.1,14.7-6.3,15.8-11.1
		c1.8,0.9,2.6,1.6,4.3,2.7c11.5,7,31.7,9,45.3,9c0,20.7,2.1,37.3-19.1,48.1c-8.8,4.5-18.4,3.9-27.3,0.1
		C128.6,155.1,121.4,143,121.4,127.9L121.4,127.9z M272.1,121.4c2.3-1.2,3.2-1.3,3.5-4.7h4.7c0,6.2,1.1,8-5.3,12.3L272.1,121.4
		L272.1,121.4z M196.2,126.1v-9.3h4.7v4.1C200.8,124,198.7,125.5,196.2,126.1L196.2,126.1z M107.4,120.8v-4.1h4.7v9.3
		C109.5,125.5,107.4,124,107.4,120.8L107.4,120.8z M247.5,115.6c0,8.1,4.6,4.5,10.5,7c3,1.2,6.7,4.3,7,8.2
		c-14.6,0-13.6,1.9-18.8-3.4c-4.4-4.4-3.4-1.8-3.4-14.2c0-4.2,1.7-5.8,5.8-5.8h17.5v4.7C260.1,112.1,247.5,110.5,247.5,115.6
		L247.5,115.6z M266.2,93.4h14v14h-4.7v-4.7c0-2.8-1.8-4.7-4.7-4.7h-4.7L266.2,93.4L266.2,93.4z M252.2,74.7h4.7v23.4h-4.7
		L252.2,74.7L252.2,74.7z M112.1,105.7c0-8.4-0.3-16.8,0.8-24.3c3.8-24.8,32.2-43.8,61.1-29.4c6.1,3,12.7,9.4,16,15
		c7.5,13,6.2,23.2,6.2,38.7c-2.1-2.4-2.3-2.9-7-2.9c-3.8,0-5.7-0.6-9.9-0.6c-9.4,0-35-4-38.7-12.7c-1.2-2.8-0.8-5.4-5.1-5.4
		c-4.2,0-4.3,2.6-4.8,6.3c-0.4,2.9-1.5,5.8-3.2,7.9C122.3,104.4,116.8,100.2,112.1,105.7L112.1,105.7z M102.8,107.4
		c-6.2,0.5-4.7,6-4.7,15.2c0,3.4,2.4,7.5,4.2,9.2c2.4,2.1,5.4,3.7,9.8,3.7c1,12.5,9.3,24.5,19.4,30.8c4.8,3,4,0.5,4,11.8l-48.1,7.3
		c-5.3,0.8-12.6,0.5-12.6,6.1v102.8c0,2.8,1.8,4.7,4.7,4.7h140.1c2.8,0,4.7-1.8,4.7-4.7v-74.7h34.4c11.3,0,21.7-10,21.6-24.5l0-54.3
		c0-4.1,0.3-3.5,2.5-5.7c2-1.9,6.9-5.7,6.9-8.9V88.7c0-2.8-1.8-4.7-4.7-4.7h-18.7c0-21.5,2.8-18.7-18.7-18.7c-6.3,0-4.7,7.7-4.7,14
		c0,6.4,0,12.8,0,19.3c-4.2,1-9.3,6.4-9.3,11.7v15.8c0,4.9,9.3,9,9.3,12.3v39.1h-70.1c0-13.2-0.9-6.7,7.7-13.9
		c8-6.6,14.7-16.6,15.6-28.2c8.2,0,14-6.4,14-12.8c0-9.2,1.5-14.7-4.7-15.2c0-9.3,0.8-20.1-0.7-28.5c-2.7-14.2-12.4-28-24.8-34.8
		c-32.3-17.9-69.8,1.1-76.4,34.3C101.9,86.9,102.8,97.9,102.8,107.4L102.8,107.4z"/>
	<path fill-rule="evenodd" clip-rule="evenodd" fill="#00C4E1" d="M0,12.8v95.7c0,6.5,6.2,12.4,12.3,12.8c8.1,0.6,17.5-0.5,25.7,0
		c3.3,0.2,3.3,1.4,7.1,5.2l12.8,12.8c1.8,1.8,4.3,5.4,7.4,5.4c2.8,0,4.7-1.8,4.7-4.7v-18.7h23.4v-9.3h-28c-6.4,0-4.7,8.2-4.7,16.3
		l-13.6-13.3c-2.1-2.2-2.2-3-6.2-3.1c-6-0.1-12.1,0-18.1,0c-6.3,0-13.4,1.2-13.4-5.3V14.6c0-2.9,2.4-5.3,5.3-5.3h129.6
		c2.9,0,5.3,2.4,5.3,5.3v18.1h9.3V12.8C158.8,6.4,152.4,0,146,0H12.9C6.4,0,0,6.4,0,12.8L0,12.8z"/>
	<path fill-rule="evenodd" clip-rule="evenodd" fill="#00C4E1" d="M146.5,140.1h15.2c-1.2,4.3-9.7,6.2-13.9,2.2
		C146.1,140.7,147.1,141.2,146.5,140.1z M135.4,135.4c0,5.7,1.8,9.6,5.1,13c11.3,11.7,32.3,4.5,32.3-13c0-2.8-1.8-4.7-4.7-4.7h-28
		C137.3,130.8,135.4,132.6,135.4,135.4L135.4,135.4z"/>
	<path fill-rule="evenodd" clip-rule="evenodd" fill="#0C4E82" d="M28,60.7c0-5.9,9.3-5.9,9.3,0S28,66.6,28,60.7z M18.7,59.6
		c0,20.4,28,20.4,28,0c0-7.1-6.1-12.8-15.2-12.8C25.1,46.7,18.7,53.1,18.7,59.6z"/>
	<path fill-rule="evenodd" clip-rule="evenodd" fill="#0C4E82" d="M74.7,60.7c0-5.9,9.3-5.9,9.3,0S74.7,66.6,74.7,60.7z M65.4,59.6
		c0,20.4,28,20.4,28,0c0-7.1-6.1-12.8-15.2-12.8C71.8,46.7,65.4,53.1,65.4,59.6z"/>
</svg>
