<svg xmlns="http://www.w3.org/2000/svg" viewBox="0 0 312 315.2">
	<path fill-rule="evenodd" clip-rule="evenodd" fill="#0C4E82" d="M269.2,154.7c-1.6,5.9-22.5,17.7-22.5,26.2c0,7.8,1.4,9.1,4,17
		c1.2,3.7,4.1,10.8,4.2,14.5c-7.9,1.8-17.8,3-25.1,5.7c-6.9,2.6-11.7,9.8-11.7,19.1c-7.9,1.8-22.5,7.4-29.2,9
		c-9.7-6.5-8.6-9.2-28.2-13.1c-9.5-1.9-27.3-3.8-34.3-7.7c-25.2-14.2-25.8-19.7-64.2-19.7c2.8-12,7.3-21.5,0.2-28.7l-14.7-13.1
		c-2.5-2.1-3.2-1.9-5-4.7c1.4-5.2,22.5-17.9,22.5-26.2c0-12.6-8.2-23-8.2-31.5c5.4-1.3,10.8-2.6,16.3-3.9c16.5-3.9,17-3.3,20.5-20.8
		c0.7-3.4,2.6-15,3.7-17.3c8.7,0.7,25.5,10.6,34.5,6.8c4.3-1.8,7.7-7.4,11-10.7c2.4-2.4,8.5-10.4,10.7-11.8
		c5.6,1.5,17.8,22.5,26.2,22.5c7.8,0,9.1-1.4,17-4c3.7-1.2,10.8-4.1,14.5-4.2c7.6,32.7,4.6,32.8,24.7,36.8
		c3.4,0.7,14.9,2.6,17.3,3.7c-0.9,10.4-10.6,25.4-6.8,34.5C248.9,138.3,266.9,151.2,269.2,154.7L269.2,154.7z M126.7,55.7
		c-4.1-1-9.2-2.5-13.4-3.8c-30.2-9.7-25.6,0.1-33.1,32.3c-5.2,0.4-27.1,5.6-30.6,8.4c-12.2,10.1,4,29.5,3.6,38.5
		c-0.1,1.6-11.2,12-12.3,12.9c-18.8,15.7-8.6,21.1,0,29.7l13.7,11.8l-4.3,19.7c-0.9,2.9-0.2,2.2-3.1,2.9c-1.4,0.4-3.1,0.5-5.1,0.9
		c-8.6,1.9-19.3,5.9-27.1,9.7c-2,1-9.3,3.7-5.8,9.7c5.7,9.6,21.9-10.7,55-10.7c17.4,0,23.3-0.4,39.5,7.7c8.3,4.1,14.8,10,23.5,13.3
		c12.6,4.7,53.3,4.7,53.3,19.5c0,3.8-2.1,4.5-5.1,5.4c-13.6,4.2-41.9-2.1-55.3-5.7c-12.5-3.3-15.5,7.9-3.8,11.3
		c10,2.8,23.9,5.1,34.6,6.6c16.4,2.4,36.1,1.1,40.5-11.9c2.6-7.6-4-5.4,15.8-11.2c12.7-3.7,55.6-18.5,65.5-18.5
		c9.7,0,9.7,6.6-4,14.8c-25.2,15-41.7,22.2-66,34.5c-11.2,5.6-45.5,21.8-57,20.1l-20.9-1.6c-14.2-1.8-26.1-3.6-38.8-6.2
		c-12.4-2.5-24.8-5.3-36.7-8.3l-36-9c-4.9,0-8.5,9.2,0.3,11.7c6.2,1.8,11.6,3.3,17.7,4.8c37.4,9.3,79.5,20.2,118.5,20.2
		c20.1,0,75.2-29.8,96.2-40.2l26.5-14.7c3.1-1.8,5.5-3.1,8.3-5.2c20.8-15.5,7.5-32.8-8-32.8c-12.1,0-30.4,8.4-42.7,11.2
		c3.3-6.2,8.7-5.9,20.9-8.3c4.8-0.9,7.2-0.7,10.7-3.5c11.7-9.4-0.2-23.4-3.9-39.1c4.8-3.2,8.1-8.5,12.7-12
		c22.4-17.1,4.1-25.9-6.5-36.2c-2.8-2.7-4.7-3.2-6.9-6.5c3.3-14.2,13.4-31.3,2.7-38.7c-4.5-3.1-23.7-6-31.2-7.8
		c-0.1-2.5-5.4-27.2-8.8-31c-9.1-10-22.1,0.9-38.5,4.7c-5.1-4.8-18-20.2-21.7-21.8c-12.3-5.3-17.1,6-26.5,15.6
		C130.6,51.5,130.1,53.4,126.7,55.7L126.7,55.7z"/>
	<path fill-rule="evenodd" clip-rule="evenodd" fill="#00C4E1" d="M155.2,105.2h1.5c0.9,4.1,7.2,15.2,9.5,19.7
		c1.9,3.9,2,6.3,6.7,7.6l25.5,3.8c1.9,1-0.1,2-1.7,3.5c-2.6,2.5-18.2,17.3-18.2,18.6c0,4.5,1.3,10.7,2.1,14.4
		c0.8,4.1,2.4,10.9,2.4,14.8c-6.6-1.5-22-12.7-27-12.7c-4.9,0-20.3,11.2-27,12.7c0.2-10.7,6.7-25.7,3-31.5l-18.9-18.6
		c-0.8-2.3,8.6-2.5,14.3-3.3c3.9-0.6,13-1.3,15.2-3.5C143.8,129.6,154.7,107.5,155.2,105.2L155.2,105.2z M135,121.7l-33.7,4.5
		c-6.3,0.8-7.5,2.1-7.5,7.5c0,2.5,25,25.9,27.7,27.7c-1.8,21.6-16.6,54.2,8.2,39.7l26.3-13.5c2.6,0,32.1,17.2,34.5,17.2
		c10.2,0,5-14.3,3.3-24.3l-3.3-19.2c3.3-0.9,17.7-16.5,21.2-20.1c4-4,6.6-4.8,6.6-9.2c0-6.6-9.1-6.3-18-7.5c-6.9-0.9-16-3-23.3-3
		c-0.6-2.4-3-7.6-4.2-10l-9.5-19c-1.7-3.4-2.5-7-7.3-7c-4.8,0-5.6,3.6-7.3,7c-1.7,3.4-3.1,6.3-4.7,9.5c-1.6,3.3-3.1,6-4.6,9.6
		C138.1,114.9,135.7,118.5,135,121.7L135,121.7z"/>
	<path fill-rule="evenodd" clip-rule="evenodd" fill="#00C4E1" d="M147.7,7.7c0,10.5-2.1,20.2,6,20.2c7.9,0,6-10.3,6-20.2
		C159.7-2.6,147.7-2.6,147.7,7.7L147.7,7.7z"/>
	<path fill-rule="evenodd" clip-rule="evenodd" fill="#00C4E1" d="M0,158.4c0,8.2,9.8,6,21.7,6c7.8,0,9.1-12-2.2-12
		C11.2,152.4,0,150.7,0,158.4L0,158.4z"/>
	<path fill-rule="evenodd" clip-rule="evenodd" fill="#00C4E1" d="M284.2,153.2c0,9.1,8.6,6.7,23.2,6.7c5.1,0,8.4-12-3.7-12
		C298.5,147.9,284.2,146.7,284.2,153.2L284.2,153.2z"/>
	<path fill-rule="evenodd" clip-rule="evenodd" fill="#00C4E1" d="M215.2,39.2c0,3.7,6,11.2,12.1,0.8c1.3-2.3,2.6-4.6,4.1-7.1
		c2-3.3,5.6-7.6,2.4-11.5c-6.2-7.5-11.1,3.1-12.6,5.8C219.9,29.6,215.2,36.5,215.2,39.2z"/>
	<path fill-rule="evenodd" clip-rule="evenodd" fill="#00C4E1" d="M18.7,82.7c0,5.2,4.7,6.3,8.1,8.4c2.5,1.5,17.1,12.3,17.7,0.5
		c0.3-7-19.8-14.1-19.8-14.1C20.7,77.4,18.7,80.2,18.7,82.7L18.7,82.7z"/>
	<path fill-rule="evenodd" clip-rule="evenodd" fill="#00C4E1" d="M72.7,27.2c0,0.3,8.6,20.2,14.2,20.2c2.6,0,6-3.4,6-6
		c0-2-4.7-9.5-5.9-11.4c-2-3.3-3.5-8.9-8.4-8.9C76.1,21.2,72.7,24.6,72.7,27.2z"/>
	<path fill-rule="evenodd" clip-rule="evenodd" fill="#00C4E1" d="M265.5,87.2c0,7.8,6.7,6.4,11.2,3.7c1.9-1.1,3.5-2,5.7-3.3
		c4.6-2.7,8.6-3.8,8.6-9.4c0-4.1-5-6.3-12-2.2C273.2,79.4,265.5,82.1,265.5,87.2L265.5,87.2z"/>
	<path fill-rule="evenodd" clip-rule="evenodd" fill="#00C4E1" d="M21.7,192.9c0,11.8,9,6.5,17.2,4.5c17.3-4.2,7.2-12.7,5.2-12.7
		C41.4,184.7,21.7,187.9,21.7,192.9z"/>
	<path fill-rule="evenodd" clip-rule="evenodd" fill="#00C4E1" d="M22.5,123.9c0,5.8,5.2,6.6,10.2,7.8c4.9,1.2,10.4,4.3,14,0.7
		c9.4-9.4-16.2-13.7-19-13.7C25.2,118.7,22.5,121.4,22.5,123.9L22.5,123.9z"/>
	<path fill-rule="evenodd" clip-rule="evenodd" fill="#00C4E1" d="M289.5,188.4c0-5.2-4-5.7-8.2-6.8c-2.7-0.8-9.7-2.9-12.8-2.9
		c-3.2,0-5.6,3.9-4.9,7.1c1,4.2,4.1,4.4,8.2,5.4c3.9,0.9,6.7,2.3,10.7,2.8C285.4,194.3,289.5,192.4,289.5,188.4L289.5,188.4z"/>
	<path fill-rule="evenodd" clip-rule="evenodd" fill="#00C4E1" d="M231,72.2c0,3.1,2.9,6,6,6c2.8,0,21.3-14,14.5-20.5
		c-4.8-4.6-8.8,0.9-11.7,3.8C237.7,63.6,231,69.1,231,72.2z"/>
	<path fill-rule="evenodd" clip-rule="evenodd" fill="#00C4E1" d="M114,29.4c0,1.2,3.1,20.2,8.2,20.2c9.6,0,7.4-5.8,5.4-12.9
		c-1.6-5.8-2.2-12.6-7.7-12.6C116.8,24.2,114,26.5,114,29.4L114,29.4z"/>
	<path fill-rule="evenodd" clip-rule="evenodd" fill="#00C4E1" d="M262.5,123.9c0,1.8,0.4,2.8,1.3,3.9c3.3,4.1,8.8,1,15.3-0.8
		c6.6-1.8,8.8-1.4,8.8-8.4c0-2.3-3-4.3-5.2-4.4l-15.5,3.9C264.3,119.2,262.5,120.3,262.5,123.9L262.5,123.9z"/>
	<path fill-rule="evenodd" clip-rule="evenodd" fill="#00C4E1" d="M55.5,64.7c0,3.7,11.6,16.5,17.2,16.5c0.4,0,10.4-3,0.9-12.2
		c-4.8-4.7-7.2-9.6-13.7-9.6C57.9,59.4,55.5,62.6,55.5,64.7z"/>
	<path fill-rule="evenodd" clip-rule="evenodd" fill="#00C4E1" d="M178.5,43.7c0,3.9,8.3,11.3,12.2-2.8c0.8-2.8,2.8-8.6,2.8-12.2
		c0-6.5-8.4-7.9-11-2C181.1,29.9,178.5,40.4,178.5,43.7L178.5,43.7z"/>
</svg>
