<svg xmlns="http://www.w3.org/2000/svg" viewBox="0 0 112 112">
		<path fill-rule="evenodd" clip-rule="evenodd" fill="#0C4E82" d="M25.8,86.2c0.1-2.8,1.8-8.7,3.1-11.1c0.4-0.8,0.7-1.5,1.3-2.2
			c0.2-0.2,0.6-0.7,0.8-1c0.4-0.4,0.7-0.6,1-0.9c1-0.9,3.1-2.3,4.5-2.7l7.3,7.2c-0.6,2.2-2.6,4.8-4.4,6.2
			C36.7,83.9,29,86.1,25.8,86.2L25.8,86.2z M65.2,86c1.7-3.2,3-9.5,1.1-13.1c3.2-0.8,12.2-7.2,14.9-9C88.5,77.7,70.5,85.5,65.2,86
			L65.2,86z M40.5,53.6l18,17.9L54.2,73c-5.2,1.7-5,1.5-7.1-0.7c-0.8-0.8-1.4-1.4-2.2-2.2c-1.5-1.5-2.9-2.9-4.5-4.5
			c-3.2-3.2-3.3-2.2-1.2-8.7C39.6,55.9,40,54.5,40.5,53.6L40.5,53.6z M39.2,45.7c-3.6-1.9-10-0.6-13.1,1.1c0.2-3,3.1-9.1,5-11.4
			c4.8-6.1,10.3-8.2,17.1-4.6c-2.3,3.5-3.5,4.9-5.9,8.8c-0.4,0.7-0.7,1.3-1.1,2C40.7,42.4,39.4,44.8,39.2,45.7L39.2,45.7z M63,69.6
			L42.4,49c3.3-6,3.2-6.6,7.3-12.7c0.4-0.6,0.6-0.8,1-1.4c4.7-6.9,12.3-14.2,19.5-18.4c3.7-2.2,7.6-4.1,11.7-5.8
			c0.7-0.3,1.3-0.4,1.9-0.7l18.1,18.2l-1.3,3.4c-1.4,3.4-3.2,6.9-5.1,10c-3.4,5.7-8.9,12.1-14,16.2C72.8,64.6,73.3,64.1,63,69.6
			L63,69.6z M103.7,23.4c-1.1-0.3-11.7-11.3-13.3-13c-0.7-0.7-1.6-1.2-1.8-2.1l9-2.2c3-0.6,6.6-1.3,9.8-1.5
			c-0.3,4.3-1.9,12.2-3.2,16.5C104,22,103.7,22.4,103.7,23.4L103.7,23.4z M51,27.3c-6.2-3.3-11.9-4.2-18.1,0c-1.4,0.9-2,1.6-3.2,2.8
			c-2.7,2.7-5.4,7.1-6.6,10.9c-1.3,3.8-2.1,6.3-2.1,10.9c0,1.3,1.4,2.3,2.5,2.1c2.3-0.4,1.8-3.4,10.3-4.6c1.1-0.1,3.5-0.2,3,1.3
			c-0.6,2.3-4.9,10.3-3.2,13.9c-3.7,1.9-2.5,1.3-5.5,3.7c-1.5,1.2-2.9,3.8-3.7,5.5C22.7,77.6,21,84.5,21,89c0,1.2,0.9,2,2.2,2
			c4.3,0,11.1-1.8,14.9-3.4c1.4-0.6,3.2-1.5,4.3-2.5c1.5-1.4,2-1.8,3.3-3.7c0.8-1.1,1.1-1.9,1.7-3.1c2.7,1.3,7.4-0.7,10.1-1.7
			c1.3-0.4,2.3-0.9,3.5-1.4c0.8-0.3,1.1-0.5,1.4,0.4c0.9,2.7-0.7,7.4-2.3,9.7c-0.6,0.8-1.9,2.1-2.1,2.9c-0.3,1.1,0.6,2.7,2,2.7
			c12.5,0,31.4-9.9,26.4-25.8c-0.2-0.7-0.6-1.4-0.9-2.2c-0.4-0.8-0.7-1.3-1-2c1.1-0.8,4.6-4.2,5.5-5.2c1.9-1.9,3.4-3.6,5-5.7
			c4.6-6.2,8.7-13.6,11.2-20.9c2.7-7.6,5.6-19.1,5.6-27.2c0-1.7-1.4-2-2.6-2c-3.2,0-6.7,0.6-9.6,1.1c-15.5,2.6-32.4,9.5-43.6,20.7
			C55.1,22.8,51.7,26.1,51,27.3L51,27.3z"/>
		<path fill-rule="evenodd" clip-rule="evenodd" fill="#0C4E82" d="M72.4,33.2c0-8.5,12.9-9.2,12.9,0.4c0,1.5-0.8,2.9-1.8,3.9
			c0,0-0.1,0.1-0.1,0.1C79.4,41.7,72.4,38.9,72.4,33.2z M67.8,33c0,3.3,1.5,6,3.2,7.7c4.6,4.5,11,4.5,15.5,0.3
			c3.8-3.5,4.5-9.7,1.5-14c-0.3-0.5-0.3-0.4-0.6-0.7c-0.3-0.4-0.4-0.5-0.7-0.9c-3.6-4-10.7-4.7-15.6-0.2C69.3,27,67.8,30.3,67.8,33
			L67.8,33z"/>
		<path fill-rule="evenodd" clip-rule="evenodd" fill="#00C4E1" d="M1.1,109.6c0,1.7,0.7,2.4,2.4,2.4c1.2,0,3.3-2.5,4.5-3.8l8.4-8.4
			c0.9-0.9,3.9-3.4,3.9-4.6c0-1.3-0.9-2.4-2.4-2.4c-1.2,0-3.3,2.5-4.5,3.8L2.9,107C2.2,107.7,1.1,108.4,1.1,109.6z"/>
		<path fill-rule="evenodd" clip-rule="evenodd" fill="#00C4E1" d="M18.6,109.6c0,1.7,0.7,2.4,2.4,2.4c1.2,0,3.3-2.5,4.5-3.8
			l8.4-8.4c0.9-0.9,3.9-3.4,3.9-4.6c0-1.3-0.9-2.4-2.4-2.4c-1.1,0-1.8,1-2.5,1.7L20.4,107C19.7,107.7,18.6,108.4,18.6,109.6z"/>
		<path fill-rule="evenodd" clip-rule="evenodd" fill="#00C4E1" d="M0,91c0,1.7,0.7,2.4,2.4,2.4c1.1,0,1.8-1,2.5-1.7
			c0.8-0.8,1.3-1.3,2.1-2.1L17.6,79c0.7-0.7,1.7-1.3,1.7-2.7c0-1.2-1.2-2.2-2.4-2.2c-1.2,0-3.7,2.9-4.5,3.8L1.8,88.4
			C1.1,89.1,0,89.8,0,91L0,91z"/>
		<path fill-rule="evenodd" clip-rule="evenodd" fill="#00C4E1" d="M11.6,67.1c0,1,1,2.2,2.4,2.2c1.6,0,3.7-2.7,4.6-3.7
			c1.3-1.3,3.7-3,3.7-4.9c0-1.5-1.6-2.4-2.8-2c-0.9,0.3-4.6,4.3-5.5,5.2C13.2,64.8,11.6,65.9,11.6,67.1z"/>
		<path fill-rule="evenodd" clip-rule="evenodd" fill="#00C4E1" d="M42.6,98c0,1.4,1.2,2.4,2.2,2.4c1.3,0,4.7-3.9,5.7-5
			c0.7-0.7,2.2-1.9,2.5-2.7c0.5-1.1-0.2-3-2.1-3c-1.5,0-3.7,2.7-4.6,3.7C45.3,94.3,42.7,96.4,42.6,98L42.6,98z"/>
		<path fill-rule="evenodd" clip-rule="evenodd" fill="#0C4E82" d="M61.3,48.3c0,1.7,0.7,2.4,2.4,2.4c1.2,0,2.2-1.4,2.9-2.1
			c1.2-1.2,2.1-1.6,2.1-3.3c0-1.4-1.1-2-2.4-2C65.1,43.3,61.3,47.1,61.3,48.3z"/>
		<path fill-rule="evenodd" clip-rule="evenodd" fill="#0C4E82" d="M54.9,54.5c0,3.5,4.6,3.1,4.6,0.4c0-2-2.2-3.2-3.8-1.8
			C55.5,53.3,54.9,54.2,54.9,54.5z"/>
</svg>
