<svg xmlns="http://www.w3.org/2000/svg" viewBox="0 0 97 97">
		<path fill-rule="evenodd" clip-rule="evenodd" fill="#0C4E82" d="M9.5,91.9v1.3H3.8v-5.3h34.1v5.3h-5.7v-1.3
			c0-1.1-1.2-1.5-2.3-1.5c-0.6,0-1.5,1-1.5,1.5v1.3h-5.7v-1.3c0-1.1-1.2-1.5-2.3-1.5c-0.6,0-1.5,1-1.5,1.5v1.3h-5.7v-1.3
			c0-1.1-1.2-1.5-2.3-1.5C10.4,90.4,9.4,91.3,9.5,91.9L9.5,91.9z M0,95.5v-9.4c0.3-2.4,1.5-1.9,5.7-1.9v-5.3c-1.2,0-5.7,0.6-5.7-1.5
			v-9.9c0-1.2,1.5-1.5,2.5-1.5c1.3,0,2.5,0,3.8,0c-0.8-0.7-1.7-1.5-2.4-2.4C1.2,59.8,0,57.3,0,52.1c0-5.2,3-10.5,7.2-13.4
			c6.1-4.2,13.7-4.1,19.7,0.1c4.2,2.9,7.1,8.2,7.1,13.3c0,5.7-1.9,10-6.2,13.8c2.6,0,5.2,0,7.8,0c1.5,0,4.5-0.3,5.3,0.4
			c0.2,0.2,0.7,0.8,0.7,1.2V75c1.2,0,5.7-0.6,5.7,1.5c0,12.7,1.2,11.4-5.7,11.4v5.3h51.5V21H77.5c-0.6,0-1.5-1-1.5-1.5V3.8H28.8v6.4
			h20.5c2.4,0,2.4,3.8,0,3.8H11.8c-0.6,0-1.5-1-1.5-1.5c0-1.1,0.4-2.3,1.5-2.3H25V1.5C25,0.9,26,0,26.6,0h51.7c0.9,0,8.5,8,9.6,9.1
			c1.1,1.1,9.1,8.8,9.1,9.6v76.7c0,0.6-1,1.5-1.5,1.5h-94C1,97,0,96,0,95.5L0,95.5z M15.2,82.6v1.5H9.5v-5.3h34.1v5.3h-5.7v-1.5
			c0-1.1-1.2-1.5-2.3-1.5c-0.6,0-1.5,1-1.5,1.5v1.5h-5.7v-1.5c0-1.1-1.2-1.5-2.3-1.5c-0.6,0-1.5,1-1.5,1.5v1.5H19v-1.5
			c0-1.1-1.2-1.5-2.3-1.5C16.1,81.1,15.1,82.1,15.2,82.6L15.2,82.6z M9.5,73.3V75H3.8v-5.3h34.1V75h-5.7v-1.7c0-2.4-3.8-2.4-3.8,0
			V75h-5.7v-1.7c0-2.4-3.8-2.4-3.8,0V75h-5.7v-1.7C13.3,71,9.5,71,9.5,73.3L9.5,73.3z M3.8,53.2c-0.2-1.1,0.5-4.3,1.1-5.6
			c2.3-5.8,8.4-9.1,14.6-8c1,0.2,1.8,0.5,2.6,0.8c1.5,0.6,3,1.6,4,2.6c7.2,7.1,4.4,18-3.2,21.5c-5,2.3-11,1.6-14.9-2.3
			c-2.5-2.5-3.7-4.8-4-8.3C3.9,53.2,3.9,53.6,3.8,53.2z M79.8,6.6l10.7,10.6l-10.7,0V6.6z"/>
		<path fill-rule="evenodd" clip-rule="evenodd" fill="#00C4E1" d="M78.1,32c0,1.6,1.4,2.1,2.9,2.1L68.3,46.9L63.3,42
			c-2.6-2.6-3.2-1-6,1.7l-8.2,8.2c-0.9,0.9-1.4,1-1.4,2.4c0,1.5,1.2,1.7,2.3,1.7c1.3,0,9.3-9.3,11.2-10.6c2,1.4,5.2,6.1,7,6.1
			c1.4,0,3.3-2.4,4.1-3.3c1.3-1.3,2.5-2.5,3.8-3.8c1.2-1.2,6.9-7,7.6-7.5c0,3.9,4,3.6,4,0c0-7.8,0.6-6.8-7.4-6.8
			c-0.7,0-1.2,0.1-1.6,0.5C78.5,30.8,78.1,31.6,78.1,32L78.1,32z"/>
		<path fill-rule="evenodd" clip-rule="evenodd" fill="#0C4E82" d="M15.2,43.6c-1.2,0.1-2.1,1-2.8,1.7c-2.9,3.1-1.1,8.5,3.6,9.2
			c1,0.2,2.1,0.1,2.7,0.7c2.4,2.2-2.9,5-3.8,1.2c-0.1-0.6-0.1-0.8-0.5-1.2c-1-1.2-3.3-0.8-3.3,1.5c0,4.2,3.6,4.6,4.1,5.5
			c0.6,1.1,0.5,1.5,2.1,1.5c1.2,0,1.3-0.8,1.7-1.5c0.3-0.6,0.1-0.3,0.9-0.6c4.4-2,4.6-8.8-1.1-10.5c-1.4-0.4-2.9-0.1-3.6-1.2
			c-1.6-2.4,3.4-4.1,4.1-0.9c0.7,3,3.8,1.9,3.8,0.1c0-1.7-0.3-2.6-1.3-3.6c-0.7-0.8-1.6-1.7-2.9-1.8C18.9,41,15.2,41,15.2,43.6
			L15.2,43.6z"/>
		<path fill-rule="evenodd" clip-rule="evenodd" fill="#00C4E1" d="M50.2,84.5c0,1.1,0.4,2.3,1.5,2.3h35.4c2.4,0,2.4-3.8,0-3.8H51.7
			C51.2,83,50.2,84,50.2,84.5L50.2,84.5z"/>
		<path fill-rule="evenodd" clip-rule="evenodd" fill="#00C4E1" d="M10.2,20.1c0,1.1,0.4,2.3,1.5,2.3h30.5c2.4,0,2.4-3.8,0-3.8H11.8
			C11.2,18.6,10.2,19.5,10.2,20.1L10.2,20.1z"/>
		<path fill-rule="evenodd" clip-rule="evenodd" fill="#00C4E1" d="M10.2,28.4c0,1.1,0.4,2.3,1.5,2.3h22c2.3,0,2.3-3.8,0-3.8h-22
			C11.2,26.9,10.2,27.9,10.2,28.4L10.2,28.4z"/>
		<path fill-rule="evenodd" clip-rule="evenodd" fill="#00C4E1" d="M75.4,56.1v21.2c0,1.2,2.1,2.2,3.2,1.1c0.2-0.2,0.6-0.8,0.6-1.1
			V56.1c0-1.1-1.2-1.5-2.3-1.5C76.4,54.6,75.4,55.5,75.4,56.1L75.4,56.1z"/>
		<path fill-rule="evenodd" clip-rule="evenodd" fill="#00C4E1" d="M83,56.1v21.2c0,1.2,2.1,2.2,3.2,1.1c0.2-0.2,0.6-0.8,0.6-1.1
			V56.1c0-1.1-1.2-1.5-2.3-1.5C83.9,54.6,83,55.5,83,56.1L83,56.1z"/>
		<path fill-rule="evenodd" clip-rule="evenodd" fill="#00C4E1" d="M60.3,57.1v20.3c0,1.2,2.1,2.2,3.2,1.1c0.2-0.2,0.6-0.8,0.6-1.1
			V57.1c0-1.1-1.2-1.5-2.3-1.5C61.2,55.5,60.2,56.5,60.3,57.1L60.3,57.1z"/>
		<path fill-rule="evenodd" clip-rule="evenodd" fill="#00C4E1" d="M52.7,62.2v15.2c0,1.2,2.1,2.2,3.2,1.1c0.2-0.2,0.6-0.8,0.6-1.1
			V62.2c0-1.1-1.2-1.5-2.3-1.5C53.6,60.6,52.7,61.6,52.7,62.2L52.7,62.2z"/>
		<path fill-rule="evenodd" clip-rule="evenodd" fill="#00C4E1" d="M67.8,64.1v13.3c0,1.2,2.1,2.2,3.2,1.1c0.2-0.2,0.6-0.8,0.6-1.1
			V64.1C71.6,61.6,67.8,61.6,67.8,64.1z"/>
		<path fill-rule="evenodd" clip-rule="evenodd" fill="#0C4E82" d="M49.3,20.5c0,0.7,0.6,1.9,1.9,1.9h6.6c1.9,0,1.9-3.8,0-3.8h-6.6
			c-0.6,0-1,0.2-1.3,0.6C49.6,19.4,49.3,20.1,49.3,20.5z"/>
		<path fill-rule="evenodd" clip-rule="evenodd" fill="#0C4E82" d="M49.3,28.8c0,0.4,0.4,1.1,0.6,1.3c0.4,0.4,0.8,0.6,1.5,0.6
			c2.3,0,2.5-3.8-0.2-3.8C49.9,26.9,49.3,28.1,49.3,28.8z"/>
		<path fill-rule="evenodd" clip-rule="evenodd" fill="#0C4E82" d="M58.4,28.8c0,0.4,0.4,1.1,0.6,1.3c0.4,0.4,0.8,0.6,1.5,0.6
			c2.3,0,2.5-3.8-0.2-3.8C59,26.9,58.4,28.1,58.4,28.8z"/>
		<path fill-rule="evenodd" clip-rule="evenodd" fill="#00C4E1" d="M40.2,28.8c0,0.4,0.4,1.1,0.6,1.3c0.4,0.4,0.8,0.6,1.5,0.6
			c2.3,0,2.5-3.8-0.2-3.8c-0.6,0-1,0.2-1.3,0.6C40.5,27.7,40.2,28.4,40.2,28.8z"/>
		<path fill-rule="evenodd" clip-rule="evenodd" fill="#0C4E82" d="M56.9,14c2.7,0,2.7-3.8,0-3.8C54.5,10.2,54.5,14,56.9,14z"/>
		<path fill-rule="evenodd" clip-rule="evenodd" fill="#00C4E1" d="M83,48.1c0,3.4,3.8,2.6,3.8,0.6c0-2.2-2.1-2.5-3.1-1.6
			C83.4,47.2,83,47.8,83,48.1z"/>
</svg>
